<svg xmlns="http://www.w3.org/2000/svg" width="77" height="77" fill="#fff" fill-rule="evenodd"><path d="M38.5 77C17.237 77 0 59.763 0 38.5S17.237 0 38.5 0 77 17.237 77 38.5 59.763 77 38.5 77zm2.87-32.97c4.533-7.932 12.42-11.614 20.797-13.143 1.615-.295 4.39-.913 6.73-1.266 1.767-.266 3.38-.322 3.532-.307.457-.066.534-.66.21-.897-.78-.624-3.365-1.497-4.596-1.672-1.742-.25-5.163-.758-10.008-2.698-2.28-.913-3.48-.435-5.702 0-6.526 1.277-17.9-4.25-24.528-3.068 0 0-12.533.682-16.393 12.41-2.272 6.9-.72 13.51 4.88 18.356 2.59 2.24 4.256 4.35 5.034 7.445.1.344.15.685.173.977 0 0-.042.878.795.878H29.5c0-.817-.897-.9-.897-.9-.64-.247-1.276-.374-1.828-.648-1.073-.532-2.4-1.293-2.787-2.26-1.642-3.98.315-6.903 4.962-7.146 6.434-.337 10.897-3.095 14.03-8.44l-1.62 2.377z"/><path d="M33.478 24.577c.285 0 .513.263.513.593s-.227.593-.513.593l-7.192.003c-.285 0-.513-.263-.513-.593s.227-.593.513-.593l7.192-.003zm-7.062 0h7.043l2.292-5.383c-.336.405-1.51.694-2.85.694-1.51 0-2.738-.348-2.963-.81-.057-.115-.11-.23-.223-.348-.336-.23-1.118-.694-2.74-.694s-2.963.405-2.963.927c0 .115 1.286 3.124 2.404 5.614-.055 0 0 0 0 0zm1.152 11.005c.162.605.647 1.153 1.403 1.372.107.056.215.056.324.11v-3.568a2.49 2.49 0 0 0-1.293.714c-.38.384-.543.877-.434 1.372zm3.488 8.022c.984-.274 1.76-.988 1.76-1.81 0-.384-.206-.823-.518-1.153a2.53 2.53 0 0 0-1.192-.604l.002 3.568h-.053zm10.565-2.297c0 7.577-5.123 10.027-11.446 10.027S18.73 48.938 18.73 41.306c0-5.514 4.196-12.312 7.848-15.54h7.194c3.653 3.286 7.85 10.027 7.85 15.54zm-10.255-3.85v-3.85c1.03.275 1.845.99 1.845 1.816h1.9c0-1.044-.543-2.09-1.466-2.807-.65-.494-1.413-.825-2.28-.99v-1.1h-1.9v1.1h-.108c-.978.165-1.9.66-2.5 1.266-.87.88-1.194 1.98-.923 3.135.27 1.266 1.25 2.3 2.66 2.807.327.1.598.165.923.22v3.85c-1.03-.275-1.845-.99-1.845-1.816h-1.9c0 1.044.543 2.09 1.466 2.807.65.494 1.413.825 2.28.99v1.1h1.9v-1.1c.87-.165 1.63-.494 2.28-.99.923-.716 1.466-1.76 1.466-2.807 0-.935-.435-1.87-1.194-2.53-.812-.713-1.8-.99-2.605-1.098z"/></svg>